<svg xmlns="http://www.w3.org/2000/svg" version="1.0" width="300.000000pt" height="85.000000pt" viewBox="0 0 300.000000 85.000000" preserveAspectRatio="xMidYMid meet">
<metadata fill="#f22727">
Created by potrace 1.10, written by Peter Selinger 2001-2011
</metadata>
<g transform="translate(0.000000,85.000000) scale(0.100000,-0.100000)" fill="#f22727" stroke="none">
<path d="M469 744 c-60 -18 -131 -81 -159 -141 -46 -98 -24 -229 53 -305 55 -56 101 -73 192 -73 96 0 142 21 202 89 96 109 85 280 -25 376 -73 65 -167 84 -263 54z m155 -35 c47 -13 117 -76 140 -126 15 -34 15 -43 3 -83 l-14 -45 -13 30 -13 30 -7 -39 c-5 -25 -18 -49 -34 -63 -37 -31 -55 -29 -25 3 l24 25 -28 -10 c-36 -14 -94 -14 -102 -1 -3 6 3 10 14 10 33 0 67 20 84 50 23 39 22 54 -2 40 -25 -13 -78 -13 -86 0 -3 6 -1 10 5 10 13 0 60 49 60 63 0 9 -53 3 -87 -10 -13 -5 -15 -1 -10 25 8 42 -6 40 -39 -3 -14 -19 -32 -35 -40 -35 -7 0 -21 -11 -30 -25 -9 -14 -27 -28 -40 -31 -13 -3 -24 -10 -24 -15 0 -16 45 -39 77 -39 37 0 40 -5 18 -26 -27 -27 -30 -85 -7 -126 29 -54 4 -51 -53 6 -172 172 -7 450 229 385z m-86 -166 c2 -11 12 -29 22 -38 19 -17 19 -18 -2 -46 -20 -27 -20 -30 -5 -47 9 -10 39 -24 66 -31 55 -14 73 -8 120 35 32 30 44 30 35 2 -14 -46 -34 -77 -71 -107 -45 -37 -97 -53 -160 -49 -46 3 -46 3 -61 53 -12 41 -12 59 -2 102 7 28 10 58 8 65 -3 8 0 22 7 31 7 10 10 27 8 38 -5 17 -2 20 13 17 10 -2 20 -13 22 -25z" fill="#f22727"/>
<path d="M950 491 c0 -94 4 -151 10 -151 6 0 10 55 10 144 0 86 -4 147 -10 151 -6 4 -10 -47 -10 -144z" fill="#f22727"/>
<path d="M1130 597 c-71 -36 -64 -160 11 -186 30 -10 105 -5 113 8 2 3 7 25 11 49 l7 42 -47 0 c-38 0 -46 -3 -41 -15 3 -8 9 -22 12 -30 4 -11 0 -15 -15 -15 -19 0 -21 6 -21 53 0 30 3 56 6 60 10 9 34 -4 34 -19 0 -9 11 -14 30 -14 27 0 30 3 30 34 0 30 -4 34 -31 40 -46 9 -71 7 -99 -7z" fill="#f22727"/>
<path d="M2398 604 c-3 -3 -4 -14 -1 -25 7 -26 53 -27 53 0 0 23 -37 41 -52 25z" fill="#f22727"/>
<path d="M2662 560 c-11 -18 -10 -58 4 -126 4 -24 36 -36 71 -28 29 8 32 44 3 44 -16 0 -20 7 -20 30 0 23 4 30 20 30 13 0 20 7 20 20 0 13 -7 20 -20 20 -11 0 -20 7 -20 15 0 22 -43 18 -58 -5z" fill="#f22727"/>
<path d="M1290 526 c0 -23 3 -24 35 -19 23 4 35 2 35 -6 0 -6 -8 -11 -18 -11 -27 0 -62 -29 -62 -50 0 -22 35 -44 52 -34 7 4 31 7 55 5 37 -2 43 1 43 19 0 11 -4 20 -9 20 -4 0 -6 11 -3 25 2 14 -3 36 -12 50 -14 21 -24 25 -66 25 -46 0 -50 -2 -50 -24z" fill="#f22727"/>
<path d="M1444 480 l0 -70 37 0 36 0 -10 40 c-8 29 -8 43 0 51 22 22 35 -1 28 -47 l-6 -44 35 0 36 0 -3 46 c-1 33 2 48 12 52 11 4 13 -5 7 -47 l-7 -51 41 0 40 0 -6 58 c-4 31 -11 63 -17 70 -12 15 -49 16 -64 1 -8 -8 -16 -7 -31 2 -16 10 -26 10 -46 1 -16 -7 -26 -8 -26 -2 0 6 -13 10 -28 10 -28 0 -28 0 -28 -70z" fill="#f22727"/>
<path d="M1720 530 c-58 -58 13 -151 93 -121 43 16 35 41 -13 41 -22 0 -40 5 -40 10 0 6 18 10 40 10 45 0 52 18 24 58 -20 29 -76 30 -104 2z" fill="#f22727"/>
<path d="M1854 480 l0 -70 43 0 c36 0 43 3 43 20 0 11 -5 20 -11 20 -6 0 -9 10 -7 23 2 16 11 23 31 25 21 3 27 9 27 28 0 26 -27 33 -48 12 -9 -9 -12 -9 -12 0 0 7 -14 12 -33 12 l-33 0 0 -70z" fill="#f22727"/>
<path d="M2067 481 c3 -40 1 -82 -5 -100 l-11 -31 45 0 c37 0 44 3 44 20 0 11 -4 20 -10 20 -5 0 -10 7 -10 16 0 10 5 14 15 10 8 -3 21 -9 29 -12 25 -10 46 25 46 75 0 51 -12 71 -45 71 -12 0 -26 -5 -33 -12 -9 -9 -12 -9 -12 0 0 7 -13 12 -29 12 l-30 0 6 -69z m91 -4 c3 -22 -1 -27 -17 -27 -15 0 -21 6 -21 23 0 46 33 49 38 4z" fill="#f22727"/>
<path d="M2247 532 c-22 -24 -22 -95 -1 -113 25 -21 93 -17 110 6 20 27 18 88 -4 108 -25 23 -85 22 -105 -1z m71 -55 c3 -22 -1 -27 -17 -27 -15 0 -21 6 -21 23 0 46 33 49 38 4z" fill="#f22727"/>
<path d="M2386 533 c10 -23 10 -83 0 -105 -7 -16 -3 -18 34 -18 42 0 42 0 36 31 -3 17 -6 49 -6 70 0 38 -1 39 -36 39 -31 0 -35 -3 -28 -17z" fill="#f22727"/>
<path d="M2470 535 c0 -8 5 -24 12 -34 9 -15 9 -28 1 -55 l-11 -36 39 0 39 0 -3 46 c-1 33 2 48 12 52 11 4 13 -5 7 -47 l-7 -51 41 0 41 0 -7 53 c-4 28 -11 60 -16 70 -10 20 -48 23 -66 5 -9 -9 -12 -9 -12 0 0 7 -14 12 -35 12 -25 0 -35 -5 -35 -15z" fill="#f22727"/>
</g>
</svg>